<?xml version="1.0" encoding="iso-8859-1"?>
<!-- Generator: Adobe Illustrator 28.5.0, SVG Export Plug-In . SVG Version: 9.03 Build 54727)  -->
<svg version="1.1" id="&#xB808;&#xC774;&#xC5B4;_1" xmlns="http://www.w3.org/2000/svg" xmlns:xlink="http://www.w3.org/1999/xlink"
	 x="0px" y="0px" viewBox="0 0 500 500" style="enable-background:new 0 0 500 500;" xml:space="preserve">
	<g>
		<path style="fill:#263357;" d="M127.104,427.911H70.542V314.789h56.562V427.911z M83.111,415.343h31.423v-87.985H83.111V415.343z"
			/>
		<path style="fill:#263357;" d="M224.061,383.318l-5.376-11.366l76.164-35.995c6.432-3.038,9.642-10.194,7.641-17.013
			c-2.222-7.555-10.169-11.938-17.749-9.746l-107.359,30.73h-56.562v-12.57h55.671l104.765-30.237
			c14.171-4.089,29.127,4.105,33.294,18.283c3.757,12.789-2.264,26.212-14.324,31.92L224.061,383.318z"/>
		<path style="fill:#263357;" d="M304.33,434.197l-90.07-0.055l-94.269-12.57l1.657-12.458l93.858,12.514h86.309l133.449-55.603
			c7.506-3.131,12.355-10.403,12.355-18.535c0-5.751-2.351-11.041-6.622-14.901c-4.266-3.849-9.776-5.665-15.484-5.069
			l-121.801,12.379l-1.276-12.508l121.801-12.379c9.243-0.921,18.345,2.08,25.186,8.255c6.844,6.174,10.767,15.005,10.767,24.224
			c0,13.22-7.887,25.047-20.088,30.134L304.33,434.197z"/>
		<path style="fill:#263357;" d="M265.365,157.796c-31.19,0-56.562-25.371-56.562-56.562c0-31.189,25.371-56.561,56.562-56.561
			c31.189,0,56.561,25.371,56.561,56.561C321.927,132.425,296.555,157.796,265.365,157.796z M265.365,57.242
			c-24.255,0-43.992,19.737-43.992,43.992c0,24.256,19.737,43.993,43.992,43.993c24.254,0,43.992-19.737,43.992-43.993
			C309.357,76.98,289.619,57.242,265.365,57.242z"/>
		<path style="fill:#263357;" d="M271.649,132.658H259.08c-10.396,0-18.853-8.456-18.853-18.853h12.568
			c0,3.467,2.818,6.284,6.285,6.284h12.569c3.468,0,6.284-2.817,6.284-6.284c0-3.468-2.816-6.285-6.284-6.285H259.08
			c-10.396,0-18.853-8.458-18.853-18.854s8.457-18.853,18.853-18.853h12.569c10.396,0,18.854,8.456,18.854,18.853h-12.569
			c0-3.467-2.816-6.284-6.284-6.284H259.08c-3.467,0-6.285,2.817-6.285,6.284c0,3.468,2.818,6.285,6.285,6.285h12.569
			c10.396,0,18.854,8.458,18.854,18.854C290.503,124.201,282.046,132.658,271.649,132.658z"/>
		<rect x="259.08" y="63.528" style="fill:#263357;" width="12.569" height="12.569"/>
		<rect x="259.08" y="126.373" style="fill:#263357;" width="12.569" height="12.568"/>
		<rect x="259.08" y="151.512" style="fill:#263357;" width="12.569" height="157.115"/>
		
			<rect x="261.559" y="239.497" transform="matrix(0.832 -0.5547 0.5547 0.832 -88.602 198.95)" style="fill:#263357;" width="45.319" height="12.569"/>
		<path style="fill:#263357;" d="M303.072,239.496h-6.284v-6.285c0-31.189,25.371-56.561,56.562-56.561h6.284v6.284
			C359.634,214.124,334.262,239.496,303.072,239.496z M346.537,189.748c-18.817,2.933-33.719,17.834-36.652,36.651
			C328.702,223.465,343.604,208.565,346.537,189.748z"/>
		
			<rect x="240.227" y="191.699" transform="matrix(0.5547 -0.8321 0.8321 0.5547 -68.5845 300.5657)" style="fill:#263357;" width="12.569" height="45.319"/>
		<path style="fill:#263357;" d="M233.941,208.074h-6.284c-31.191,0-56.562-25.372-56.562-56.562v-6.284h6.285
			c31.189,0,56.561,25.371,56.561,56.561V208.074z M184.193,158.325c2.934,18.816,17.834,33.719,36.651,36.652
			C217.911,176.159,203.01,161.258,184.193,158.325z"/>
		<rect x="416.195" y="107.52" style="fill:#263357;" width="37.708" height="12.569"/>
		<rect x="428.765" y="94.95" style="fill:#263357;" width="12.569" height="37.707"/>
		<rect x="365.919" y="69.813" style="fill:#263357;" width="50.276" height="12.568"/>
		<rect x="384.771" y="50.958" style="fill:#263357;" width="12.57" height="50.276"/>
		<rect x="378.487" y="145.228" style="fill:#263357;" width="37.708" height="12.568"/>
		<rect x="391.058" y="132.658" style="fill:#263357;" width="12.568" height="37.708"/>
		<rect x="139.673" y="82.381" style="fill:#263357;" width="12.569" height="37.708"/>
		<rect x="127.104" y="94.95" style="fill:#263357;" width="37.707" height="12.569"/>
		<rect x="95.681" y="120.089" style="fill:#263357;" width="12.569" height="50.276"/>
		<rect x="76.826" y="138.942" style="fill:#263357;" width="50.277" height="12.57"/>
	</g>
</svg>
