<?xml version="1.0" encoding="iso-8859-1"?>
<!-- Generator: Adobe Illustrator 28.5.0, SVG Export Plug-In . SVG Version: 9.03 Build 54727)  -->
<svg version="1.1" id="&#xB808;&#xC774;&#xC5B4;_1" xmlns="http://www.w3.org/2000/svg" xmlns:xlink="http://www.w3.org/1999/xlink"
	 x="0px" y="0px" viewBox="0 0 500 500" style="enable-background:new 0 0 500 500;" xml:space="preserve">
	<g>
		<polygon style="fill:#263357;" points="112.749,352.171 81.326,352.171 81.326,75.649 433.264,75.649 433.264,131.05 
			420.695,131.05 420.695,88.217 93.896,88.217 93.896,339.601 112.749,339.601 	"/>
		<path style="fill:#263357;" d="M452.118,88.217H62.472V50.51h389.645V88.217z M75.042,75.649h364.507v-12.57H75.042V75.649z"/>
		<path style="fill:#263357;" d="M144.172,383.594c-20.793,0-37.708-16.914-37.708-37.707c0-20.794,16.915-37.709,37.708-37.709
			c20.793,0,37.707,16.915,37.707,37.709C181.879,366.68,164.965,383.594,144.172,383.594z M144.172,320.748
			c-13.864,0-25.139,11.274-25.139,25.14c0,13.863,11.274,25.138,25.139,25.138c13.864,0,25.139-11.274,25.139-25.138
			C169.311,332.022,158.037,320.748,144.172,320.748z"/>
		<path style="fill:#263357;" d="M188.164,440.155H100.18v-18.853c0-24.255,19.737-43.992,43.992-43.992
			c24.254,0,43.991,19.737,43.991,43.992V440.155z M112.749,427.586h62.847v-6.284c0-17.326-14.098-31.424-31.423-31.424
			c-17.326,0-31.424,14.098-31.424,31.424V427.586z"/>
		<path style="fill:#263357;" d="M257.294,383.594c-20.793,0-37.707-16.914-37.707-37.707c0-20.794,16.914-37.709,37.707-37.709
			c20.794,0,37.709,16.915,37.709,37.709C295.003,366.68,278.088,383.594,257.294,383.594z M257.294,320.748
			c-13.863,0-25.138,11.274-25.138,25.14c0,13.863,11.274,25.138,25.138,25.138c13.865,0,25.139-11.274,25.139-25.138
			C282.433,332.022,271.16,320.748,257.294,320.748z"/>
		<path style="fill:#263357;" d="M301.288,440.155h-87.984v-18.853c0-24.255,19.737-43.992,43.991-43.992
			c24.256,0,43.993,19.737,43.993,43.992V440.155z M225.873,427.586h62.846v-6.284c0-17.326-14.098-31.424-31.424-31.424
			c-17.324,0-31.422,14.098-31.422,31.424V427.586z"/>
		<path style="fill:#263357;" d="M370.418,383.594c-20.793,0-37.708-16.914-37.708-37.707c0-20.794,16.915-37.709,37.708-37.709
			c20.793,0,37.707,16.915,37.707,37.709C408.126,366.68,391.211,383.594,370.418,383.594z M370.418,320.748
			c-13.864,0-25.139,11.274-25.139,25.14c0,13.863,11.274,25.138,25.139,25.138c13.864,0,25.138-11.274,25.138-25.138
			C395.556,332.022,384.283,320.748,370.418,320.748z"/>
		<path style="fill:#263357;" d="M414.411,440.155h-87.985v-18.853c0-24.255,19.738-43.992,43.993-43.992
			c24.255,0,43.992,19.737,43.992,43.992V440.155z M338.995,427.586h62.847v-6.284c0-17.326-14.098-31.424-31.423-31.424
			c-17.325,0-31.424,14.098-31.424,31.424V427.586z"/>
		<rect x="175.595" y="339.601" style="fill:#263357;" width="50.277" height="12.57"/>
		<rect x="288.718" y="339.601" style="fill:#263357;" width="50.276" height="12.57"/>
		<path style="fill:#263357;" d="M408.126,195.056c-20.793,0-37.707-16.914-37.707-37.707c0-20.793,16.914-37.708,37.707-37.708
			c20.793,0,37.708,16.915,37.708,37.708C445.834,178.142,428.918,195.056,408.126,195.056z M408.126,132.21
			c-13.863,0-25.139,11.274-25.139,25.138c0,13.864,11.275,25.139,25.139,25.139c13.864,0,25.139-11.274,25.139-25.139
			C433.264,143.484,421.99,132.21,408.126,132.21z"/>
		<path style="fill:#263357;" d="M452.118,327.033h-12.569v-92.747c0-16.577-12.17-30.957-27.709-32.737
			c-6.678-0.767-13.258,0.546-19.014,3.787c-1.394,0.853-30.927,20.032-50.406,32.699l-4.266,2.774l-31.883-31.883
			c-2.664-2.664-7.304-2.664-9.967,0c-2.75,2.749-2.75,7.218,0,9.967l32.264,32.264c3.314,3.309,8.42,4.266,12.68,2.357
			l35.455-15.761v76.71h-12.568v-57.365l-17.781,7.904c-9.003,4.008-19.719,2.008-26.672-4.959l-32.265-32.263
			c-7.647-7.648-7.647-20.094,0-27.741c7.647-7.647,20.095-7.647,27.741,0l24.679,24.678c30.397-19.756,46.158-29.968,46.845-30.349
			c8.06-4.529,17.265-6.365,26.582-5.303c22.148,2.529,38.854,21.972,38.854,45.22V327.033z"/>
		<rect x="401.841" y="220.194" style="fill:#263357;" width="12.569" height="50.277"/>
		<polygon style="fill:#263357;" points="408.126,229.082 384.829,205.784 393.715,196.897 408.126,211.308 422.537,196.897 
			431.423,205.784 	"/>
		<path style="fill:#263357;" d="M125.319,239.048c-10.397,0-18.854-8.458-18.854-18.854c0-10.397,8.457-18.854,18.854-18.854
			c10.396,0,18.854,8.457,18.854,18.854C144.172,230.591,135.715,239.048,125.319,239.048z M125.319,213.91
			c-3.469,0-6.285,2.817-6.285,6.285c0,3.467,2.816,6.285,6.285,6.285c3.467,0,6.284-2.817,6.284-6.285
			C131.603,216.727,128.786,213.91,125.319,213.91z"/>
		<path style="fill:#263357;" d="M188.164,163.632c-10.396,0-18.853-8.457-18.853-18.854c0-10.396,8.456-18.854,18.853-18.854
			s18.855,8.457,18.855,18.854C207.018,155.176,198.56,163.632,188.164,163.632z M188.164,138.494c-3.467,0-6.284,2.817-6.284,6.285
			c0,3.468,2.817,6.285,6.284,6.285c3.469,0,6.286-2.817,6.286-6.285C194.45,141.312,191.632,138.494,188.164,138.494z"/>
		<path style="fill:#263357;" d="M244.726,220.194c-10.396,0-18.854-8.457-18.854-18.854c0-10.397,8.457-18.854,18.854-18.854
			s18.855,8.457,18.855,18.854C263.581,211.737,255.123,220.194,244.726,220.194z M244.726,195.056c-3.468,0-6.285,2.817-6.285,6.285
			c0,3.467,2.817,6.284,6.285,6.284c3.467,0,6.284-2.817,6.284-6.284C251.01,197.873,248.193,195.056,244.726,195.056z"/>
		<path style="fill:#263357;" d="M313.857,144.779c-10.397,0-18.854-8.457-18.854-18.854s8.457-18.854,18.854-18.854
			c10.396,0,18.853,8.457,18.853,18.854S324.253,144.779,313.857,144.779z M313.857,119.641c-3.468,0-6.285,2.817-6.285,6.285
			s2.817,6.285,6.285,6.285c3.467,0,6.285-2.817,6.285-6.285S317.324,119.641,313.857,119.641z"/>
		
			<rect x="116.5" y="176.199" transform="matrix(0.6247 -0.7809 0.7809 0.6247 -83.6723 190.8831)" style="fill:#263357;" width="80.483" height="12.575"/>
		
			<rect x="210.161" y="141.953" transform="matrix(0.7071 -0.7071 0.7071 0.7071 -58.9763 203.7392)" style="fill:#263357;" width="12.568" height="62.214"/>
		
			<rect x="237.016" y="157.349" transform="matrix(0.669 -0.7432 0.7432 0.669 -29.1806 261.7368)" style="fill:#263357;" width="84.55" height="12.567"/>
		
			<rect x="268.293" y="145.96" transform="matrix(0.8396 -0.5433 0.5433 0.8396 -52.5251 177.6858)" style="fill:#263357;" width="12.57" height="63.627"/>
		<rect x="163.026" y="251.618" style="fill:#263357;" width="100.555" height="12.568"/>
		<rect x="181.879" y="276.756" style="fill:#263357;" width="81.701" height="12.568"/>
	</g>
</svg>
