<?xml version="1.0" encoding="iso-8859-1"?>
<!-- Generator: Adobe Illustrator 28.5.0, SVG Export Plug-In . SVG Version: 9.03 Build 54727)  -->
<svg version="1.1" id="&#xB808;&#xC774;&#xC5B4;_1" xmlns="http://www.w3.org/2000/svg" xmlns:xlink="http://www.w3.org/1999/xlink"
	 x="0px" y="0px" viewBox="0 0 500 500" style="enable-background:new 0 0 500 500;" xml:space="preserve">
	<g>
		<path style="fill:#243255;" d="M115.267,277.631c-1.418,0-2.848-0.479-4.026-1.46l-21.849-18.265
			c-19.744-16.51-31.884-40.776-33.32-66.571c-1.437-25.82,7.954-51.309,25.771-69.935c33.491-35.014,88.818-38.119,125.968-7.064
			l102.353,85.578c5.977,5.002,9.653,12.348,10.089,20.155c0.436,7.812-2.412,15.527-7.807,21.167
			c-10.151,10.605-26.403,11.667-37.818,2.455l-46.343-37.346c-2.707-2.172-3.13-6.131-0.951-8.832
			c2.173-2.706,6.131-3.136,8.831-0.951l46.349,37.346c6.291,5.063,15.257,4.486,20.848-1.362c3.044-3.179,4.585-7.365,4.339-11.778
			c-0.246-4.412-2.234-8.39-5.603-11.213l-102.352-85.573c-32.08-26.838-79.883-24.15-108.821,6.107
			c-15.644,16.355-23.567,37.861-22.302,60.544c1.258,22.665,11.501,43.133,28.833,57.623l21.849,18.265
			c2.663,2.228,3.013,6.192,0.791,8.857C118.85,276.864,117.065,277.631,115.267,277.631z"/>
		<path style="fill:#243255;" d="M263.077,405.397c-6.751,0.006-13.514-2.43-18.817-7.309l-18.412-16.94
			c-5.695-5.241-8.997-12.698-9.059-20.461c-0.062-7.764,3.118-15.27,8.721-20.603c10.575-10.046,27.249-10.188,37.978-0.319
			l18.412,16.939c5.696,5.242,8.997,12.692,9.065,20.456c0.061,7.757-3.112,15.27-8.722,20.609
			C276.899,402.85,269.994,405.397,263.077,405.397z M244.672,345.013c-3.787,0-7.567,1.393-10.495,4.18
			c-3.143,2.989-4.855,7.033-4.818,11.391c0.03,4.364,1.811,8.377,5.002,11.317l18.406,16.933c5.898,5.425,15.037,5.333,20.812-0.172
			c3.142-2.989,4.854-7.039,4.818-11.397c-0.037-4.357-1.817-8.371-5.002-11.305l0,0l-18.412-16.939
			C252.073,346.344,248.373,345.013,244.672,345.013z"/>
		<path style="fill:#243255;" d="M294.574,375.441c-6.757,0.006-13.514-2.43-18.817-7.303l-18.412-16.945
			c-5.696-5.242-8.998-12.692-9.065-20.456c-0.061-7.757,3.112-15.27,8.721-20.609c10.575-10.047,27.262-10.176,37.983-0.313
			l18.412,16.939c5.696,5.241,8.997,12.697,9.059,20.461c0.062,7.764-3.118,15.27-8.721,20.603
			C308.389,372.9,301.485,375.441,294.574,375.441z M276.162,315.057c-3.787,0-7.567,1.399-10.495,4.179
			c-3.143,2.989-4.855,7.039-4.818,11.397c0.037,4.357,1.817,8.372,5.002,11.305c0,0,0,0,0,0.006l18.412,16.945
			c5.886,5.4,15.018,5.315,20.805-0.178c3.143-2.989,4.855-7.034,4.818-11.391c-0.03-4.364-1.81-8.378-5.002-11.317l-18.405-16.933
			C283.57,316.394,279.863,315.057,276.162,315.057z"/>
		<path style="fill:#243255;" d="M326.071,345.497c-6.757,0-13.514-2.436-18.823-7.322l-18.406-16.933
			c-5.695-5.241-9.003-12.698-9.064-20.462c-0.068-7.758,3.118-15.27,8.721-20.603c10.575-10.047,27.262-10.194,37.984-0.312
			l18.405,16.933c5.702,5.241,9.004,12.704,9.065,20.468c0.061,7.764-3.117,15.27-8.727,20.597
			C339.886,342.944,332.975,345.497,326.071,345.497z M307.665,285.106c-3.787,0-7.574,1.393-10.501,4.179
			c-3.142,2.989-4.854,7.034-4.818,11.391c0.037,4.357,1.811,8.377,5.002,11.311l0,0l18.412,16.939
			c5.886,5.413,15.018,5.333,20.806-0.172c3.143-2.989,4.855-7.027,4.818-11.385c-0.037-4.364-1.811-8.383-5.003-11.317
			l-18.412-16.939C315.067,286.438,311.366,285.106,307.665,285.106z"/>
		<path style="fill:#243255;" d="M357.561,315.541c-6.757,0-13.514-2.43-18.817-7.309l-18.412-16.951
			c-5.696-5.235-8.998-12.692-9.059-20.456c-0.061-7.764,3.118-15.27,8.721-20.603c10.568-10.053,27.249-10.176,37.977-0.313
			l18.412,16.939c5.695,5.242,8.997,12.692,9.065,20.456c0.061,7.757-3.112,15.27-8.722,20.609l0,0
			C371.383,312.994,364.472,315.541,357.561,315.541z M372.395,303.359h0.061H372.395z M339.149,255.15
			c-3.786,0-7.567,1.393-10.488,4.18c-3.143,2.989-4.854,7.033-4.818,11.391c0.03,4.364,1.811,8.378,5.001,11.317l18.406,16.945
			c5.886,5.401,15.024,5.328,20.811-0.178l0,0c3.142-2.989,4.854-7.04,4.818-11.397c-0.037-4.357-1.817-8.371-5.002-11.305
			l-18.412-16.939C346.557,256.488,342.85,255.15,339.149,255.15z"/>
		<path style="fill:#243255;" d="M380.828,282.608c-1.78,0-3.548-0.755-4.794-2.215c-2.246-2.646-1.921-6.616,0.724-8.863
			l27.378-23.242c17.369-14.521,27.612-34.989,28.87-57.654c1.264-22.683-6.659-44.189-22.303-60.544
			c-28.931-30.257-76.741-32.945-108.821-6.107l-47.042,39.334c-2.67,2.228-6.628,1.866-8.856-0.792
			c-2.222-2.663-1.872-6.628,0.792-8.855l47.042-39.334c37.124-31.049,92.477-27.956,125.969,7.064
			c17.816,18.626,27.207,44.115,25.771,69.935c-1.436,25.795-13.576,50.061-33.319,66.571l-27.342,23.211
			C383.712,282.117,382.27,282.608,380.828,282.608z"/>
		<path style="fill:#243255;" d="M223.345,407.055c-6.002,0-11.931-1.896-16.791-5.72c-6.745-5.303-10.686-13.232-10.814-21.75
			c-0.019-1.375,0.061-2.737,0.233-4.075c-6.929,0.681-13.889-1.209-19.474-5.597c-6.745-5.309-10.679-13.232-10.808-21.751
			c-0.018-1.375,0.056-2.731,0.234-4.069c-6.923,0.632-13.889-1.209-19.474-5.597c-6.745-5.309-10.685-13.245-10.814-21.764
			c-0.019-1.313,0.056-2.614,0.209-3.897c-1.811,0.16-3.64,0.123-5.481-0.08c-7.623-0.853-14.404-4.719-19.093-10.881
			c-8.941-11.759-6.603-29.367,5.217-39.254l60.318-50.443c2.682-2.228,6.629-1.859,8.856,0.792c2.222,2.663,1.872,6.628-0.792,8.856
			l-60.318,50.437c-6.745,5.641-8.211,15.509-3.277,22.003c2.59,3.4,6.315,5.529,10.488,6.002c4.174,0.436,8.242-0.761,11.465-3.461
			l2.424-2.02c0.013-0.012,0.025-0.025,0.037-0.037l0,0c2.676-2.222,6.635-1.86,8.857,0.792c2.222,2.664,1.872,6.629-0.792,8.857l0,0
			l-0.024,0.018c-3.578,3.001-5.591,7.42-5.523,12.133c0.067,4.714,2.265,9.114,6.015,12.066c5.554,4.37,13.803,4.02,19.621-0.854
			l1.896-1.589h0.006c2.676-2.233,6.622-1.866,8.85,0.786c2.228,2.658,1.878,6.616-0.779,8.85l-0.037,0.03
			c-3.578,3.007-5.591,7.427-5.518,12.14c0.068,4.707,2.259,9.101,6.008,12.054c5.561,4.375,13.809,4.008,19.621-0.847l1.903-1.596
			c2.676-2.222,6.628-1.859,8.856,0.792c2.222,2.664,1.872,6.628-0.792,8.851c-3.597,3.013-5.622,7.444-5.548,12.17
			c0.067,4.707,2.264,9.102,6.014,12.053c5.555,4.37,13.803,4.014,19.621-0.853l6.641-5.548c2.676-2.234,6.634-1.865,8.85,0.786
			c2.228,2.664,1.878,6.628-0.786,8.85l-6.641,5.554C236.595,404.772,229.93,407.055,223.345,407.055z"/>
		
			<rect x="139.66" y="265.569" transform="matrix(0.7673 -0.6413 0.6413 0.7673 -131.7905 180.5491)" style="fill:#243255;" width="86.412" height="12.575"/>
		
			<rect x="169.854" y="297.369" transform="matrix(0.7673 -0.6413 0.6413 0.7673 -145.2968 206.9321)" style="fill:#243255;" width="85.218" height="12.575"/>
		<path style="fill:#243255;" d="M208.321,369.961c-1.799,0-3.585-0.767-4.824-2.252c-2.229-2.664-1.878-6.628,0.785-8.85
			l14.754-12.342c2.676-2.241,6.635-1.866,8.85,0.785c2.228,2.664,1.878,6.628-0.786,8.85l-14.754,12.342
			C211.168,369.482,209.738,369.961,208.321,369.961z"/>
		<path style="fill:#243255;" d="M195.856,225.372c-29.054,0-52.695-23.789-52.695-53.033h12.569c0,22.309,18,40.463,40.126,40.463
			c12.292,0,23.739-5.566,31.398-15.275l9.869,7.795C227.057,218.062,212.015,225.372,195.856,225.372z"/>
	</g>
</svg>
